# xmcd
#
# Track frame offsets:
# 150
# 20640
# 70667
# 99990
# 125677
# 154692
# 182570
# 210322
# 235640
# 265205
# 294247
#
# Disc length: 4318 seconds
#
#
# Revision: 0
# Processed by: cddbd v1.5.2PL0 Copyright (c) Steve Scherf et al.
# Submitted via: FreeRIP 2.90 
#
DISCID=8c10dc0b
DTITLE=ASMAHAN - ASMAHAN
DYEAR=1900
DGENRE=Ethnic
TTITLE0=YALLI HAWAK
TTITLE1=LAYALI ELOUNS
TTITLE2=ENTA HATARAF
TTITLE3=ANA ELLI ASTAHEL
TTITLE4=ASKINIHA
TTITLE5=AHWA
TTITLE6=ELWARD
TTITLE7=YA LAYALI EL BOCHR
TTITLE8=AYOUHA ENNAYEM
TTITLE9=YA DIRATI
TTITLE10=KANLI AMAL
EXTD=
EXTT0=
EXTT1=
EXTT2=
EXTT3=
EXTT4=
EXTT5=
EXTT6=
EXTT7=
EXTT8=
EXTT9=
EXTT10=
PLAYORDER=
